<svg width="29" height="28" viewBox="0 0 29 28" fill="none" xmlns="http://www.w3.org/2000/svg">
<path fill-rule="evenodd" clip-rule="evenodd" d="M7.19991 2.33334L16.0235 2.33334C16.6735 2.33334 17.294 2.60446 17.7356 3.08139L22.912 8.67191C23.3114 9.10322 23.5332 9.66938 23.5332 10.2572V23.3333C23.5332 24.622 22.4886 25.6667 21.1999 25.6667H7.19991C5.91125 25.6667 4.86658 24.622 4.86658 23.3333L4.86658 4.66668C4.86658 3.37801 5.91125 2.33334 7.19991 2.33334ZM16.0235 4.66668L7.19991 4.66668L7.19991 23.3333H21.1999L21.1999 10.2572L16.0235 4.66668Z" fill="#000"/>
<path fill-rule="evenodd" clip-rule="evenodd" d="M9.53333 19.8333C9.53333 19.189 10.0557 18.6667 10.7 18.6667H17.7C18.3443 18.6667 18.8667 19.189 18.8667 19.8333C18.8667 20.4777 18.3443 21 17.7 21H10.7C10.0557 21 9.53333 20.4777 9.53333 19.8333Z" fill="#000"/>
<path fill-rule="evenodd" clip-rule="evenodd" d="M9.53333 16.3333C9.53333 15.689 10.0557 15.1667 10.7 15.1667H17.7C18.3443 15.1667 18.8667 15.689 18.8667 16.3333C18.8667 16.9777 18.3443 17.5 17.7 17.5H10.7C10.0557 17.5 9.53333 16.9777 9.53333 16.3333Z" fill="#000"/>
<path fill-rule="evenodd" clip-rule="evenodd" d="M15.3666 2.33333C16.0109 2.33333 16.5333 2.85566 16.5333 3.49999L16.5333 9.33333L22.3666 9.33333C23.011 9.33333 23.5333 9.85566 23.5333 10.5C23.5333 11.1443 23.011 11.6667 22.3666 11.6667H16.5333C15.2446 11.6667 14.2 10.622 14.2 9.33333L14.2 3.49999C14.2 2.85566 14.7223 2.33333 15.3666 2.33333Z" fill="#000"/>
</svg>
