<svg width="29" height="28" viewBox="0 0 29 28" fill="none" xmlns="http://www.w3.org/2000/svg">
<path fill-rule="evenodd" clip-rule="evenodd" d="M16.1365 3.29432C15.2568 2.52456 13.9432 2.52455 13.0635 3.29432L4.8968 10.4401C4.39043 10.8832 4.09998 11.5233 4.09998 12.1962V22.1668C4.09998 23.4554 5.14464 24.5001 6.43331 24.5001H11.1C12.3886 24.5001 13.4333 23.4554 13.4333 22.1668V17.5001H15.7666V22.1668C15.7666 23.4554 16.8113 24.5001 18.1 24.5001H22.7666C24.0553 24.5001 25.1 23.4554 25.1 22.1668V12.1962C25.1 11.5233 24.8095 10.8832 24.3032 10.4402L16.1365 3.29432ZM14.6 5.05033L6.43331 12.1962V22.1668H11.1V17.5001C11.1 16.2114 12.1446 15.1668 13.4333 15.1668H15.7666C17.0553 15.1668 18.1 16.2114 18.1 17.5001V22.1668H22.7666V12.1962L14.6 5.05033Z" fill="#000"/>
</svg>
