<svg width="29" height="28" viewBox="0 0 29 28" fill="none" xmlns="http://www.w3.org/2000/svg">
<path fill-rule="evenodd" clip-rule="evenodd" d="M19.952 12.7573L19.9592 10.6371H19.9665V10.5787H21.3108C22.2046 10.5787 22.6478 10.3374 22.6478 9.8403V6.34577C22.6405 5.84865 22.1755 5.60008 21.2599 5.60008H20.1409H19.9665H18.4115V12.7573H19.952ZM19.9447 6.42619H21.1001V9.74524H19.9447V6.42619ZM3.4935 14.8847L3.50076 12.7646V12.7061H4.62706C5.3755 12.7061 5.7461 12.4649 5.7461 11.9677V8.4732C5.73882 7.97607 5.35371 7.72751 4.58346 7.72751H3.64609H3.50076H2.20007V14.8847H3.4935ZM3.4935 8.56093H4.45994V11.88H3.4935V8.56093ZM9.72824 12.7061H7.27219C6.5528 12.7061 6.18946 12.4575 6.18946 11.9604L6.19674 10.5056C6.19674 10.0158 6.56732 9.76719 7.31576 9.75988H8.44206V8.56093H7.47564L7.46836 9.21888H6.20402V8.4732C6.20402 7.98339 6.58188 7.74213 7.33757 7.74213L8.60194 7.72751C9.35038 7.72751 9.72824 7.97607 9.72824 8.46589V12.7061ZM7.48289 11.8727H8.45662L8.44934 10.5933H7.48289V11.8727ZM11.421 12.7061H12.5546L12.5618 12.7646V14.0659H11.5954V13.4079H10.3093V14.1463C10.3093 14.6434 10.6871 14.892 11.4356 14.892H12.7217C13.4702 14.892 13.848 14.6434 13.848 14.1463V7.72751H12.5618H12.402H11.4646C10.6944 7.72751 10.3093 7.97607 10.302 8.4732V11.9677C10.302 12.4575 10.6726 12.7061 11.421 12.7061ZM12.5546 11.8727H11.5882V8.56093H12.5546V11.8727ZM17.83 11.9604C17.8227 12.4575 17.4376 12.6988 16.6673 12.6988H15.4175C14.6618 12.6988 14.2839 12.4502 14.2839 11.9604V8.46589C14.2839 7.96876 14.6618 7.72751 15.4175 7.72751H16.7037C17.4521 7.72751 17.8227 7.97607 17.8227 8.46589V11.9604H17.83ZM16.5511 8.56093H15.5774V11.88H16.5438L16.5511 8.56093ZM26.0555 5.64383C26.9493 5.64383 27.3925 5.88509 27.3925 6.38221L27.3998 12.3989C27.3998 17.9185 22.9527 22.4 17.4593 22.4C14.2766 22.4 11.4355 20.894 9.61883 18.5545L8.63061 19.3441L8.49253 14.9211L11.588 17.0193L10.8178 17.6114C12.3583 19.5927 14.7635 20.872 17.4593 20.872C22.1098 20.872 25.8666 17.0924 25.8666 12.4136V10.5859H24.704V12.7718H23.1635V6.38221C23.1635 5.8924 23.614 5.64383 24.515 5.64383H26.0555ZM24.6967 9.75244H25.8593V6.46263H24.6967V9.75244Z" fill="#000"/>
</svg>
